<svg xmlns="http://www.w3.org/2000/svg" xmlns:xlink="http://www.w3.org/1999/xlink" width="1700" zoomAndPan="magnify" viewBox="0 0 1275 299.999988" height="400" preserveAspectRatio="xMidYMid meet" version="1.0"><defs><g/></defs><g fill="#ffffff" fill-opacity="1"><g transform="translate(18.717256, 193.381779)"><g><path d="M 71.15625 -90.65625 L 107.257812 -90.65625 L 74.710938 -53.367188 L 107.917969 0 L 73.527344 0 L 54.683594 -33.207031 L 38.871094 -20.292969 L 38.871094 0 L 9.75 0 L 9.75 -90.65625 L 38.871094 -90.65625 L 38.871094 -51.917969 Z M 71.15625 -90.65625 "/></g></g></g><g fill="#ffffff" fill-opacity="1"><g transform="translate(128.478047, 193.381779)"><g><path d="M 38.609375 -99.089844 L 50.730469 -116.613281 L 76.160156 -116.613281 L 76.425781 -116.085938 L 55.34375 -99.089844 Z M 66.675781 -12.78125 L 34.917969 -12.78125 L 31.097656 0 L 1.316406 0 L 34.390625 -90.65625 L 68.253906 -90.65625 L 101.328125 0 L 70.496094 0 Z M 60.613281 -33.074219 L 51.125 -65.355469 L 50.597656 -65.355469 L 40.980469 -33.074219 Z M 60.613281 -33.074219 "/></g></g></g><g fill="#ffffff" fill-opacity="1"><g transform="translate(230.991729, 193.381779)"><g><path d="M 47.832031 -92.238281 C 59.425781 -92.238281 68.957031 -89.886719 76.425781 -85.1875 C 83.890625 -80.488281 87.714844 -73.527344 87.890625 -64.300781 L 87.890625 -62.722656 L 60.613281 -62.722656 L 60.613281 -63.25 C 60.613281 -65.882812 59.648438 -68.078125 57.714844 -69.835938 C 55.78125 -71.59375 52.839844 -72.472656 48.886719 -72.472656 C 45.019531 -72.472656 42.054688 -71.902344 39.992188 -70.757812 C 37.925781 -69.617188 36.894531 -68.210938 36.894531 -66.542969 C 36.894531 -64.171875 38.300781 -62.414062 41.113281 -61.273438 C 43.921875 -60.128906 48.445312 -58.945312 54.683594 -57.714844 C 61.976562 -56.222656 67.96875 -54.660156 72.667969 -53.035156 C 77.371094 -51.410156 81.476562 -48.753906 84.988281 -45.066406 C 88.503906 -41.375 90.304688 -36.367188 90.390625 -30.042969 C 90.390625 -19.324219 86.769531 -11.375 79.523438 -6.191406 C 72.273438 -1.011719 62.589844 1.582031 50.46875 1.582031 C 36.324219 1.582031 25.320312 -0.789062 17.460938 -5.535156 C 9.597656 -10.277344 5.664062 -18.667969 5.664062 -30.703125 L 33.207031 -30.703125 C 33.207031 -26.132812 34.390625 -23.082031 36.761719 -21.542969 C 39.136719 -20.007812 42.824219 -19.238281 47.832031 -19.238281 C 51.519531 -19.238281 54.574219 -19.632812 56.988281 -20.425781 C 59.40625 -21.214844 60.613281 -22.839844 60.613281 -25.300781 C 60.613281 -27.496094 59.273438 -29.144531 56.59375 -30.242188 C 53.914062 -31.339844 49.542969 -32.503906 43.484375 -33.734375 C 36.105469 -35.3125 30 -36.960938 25.167969 -38.671875 C 20.335938 -40.386719 16.121094 -43.21875 12.519531 -47.171875 C 8.917969 -51.125 7.117188 -56.484375 7.117188 -63.25 C 7.117188 -73.175781 10.957031 -80.488281 18.644531 -85.1875 C 26.332031 -89.886719 36.058594 -92.238281 47.832031 -92.238281 Z M 47.832031 -92.238281 "/></g></g></g><g fill="#ffffff" fill-opacity="1"><g transform="translate(326.126525, 193.381779)"><g><path d="M 47.832031 -92.238281 C 59.425781 -92.238281 68.957031 -89.886719 76.425781 -85.1875 C 83.890625 -80.488281 87.714844 -73.527344 87.890625 -64.300781 L 87.890625 -62.722656 L 60.613281 -62.722656 L 60.613281 -63.25 C 60.613281 -65.882812 59.648438 -68.078125 57.714844 -69.835938 C 55.78125 -71.59375 52.839844 -72.472656 48.886719 -72.472656 C 45.019531 -72.472656 42.054688 -71.902344 39.992188 -70.757812 C 37.925781 -69.617188 36.894531 -68.210938 36.894531 -66.542969 C 36.894531 -64.171875 38.300781 -62.414062 41.113281 -61.273438 C 43.921875 -60.128906 48.445312 -58.945312 54.683594 -57.714844 C 61.976562 -56.222656 67.96875 -54.660156 72.667969 -53.035156 C 77.371094 -51.410156 81.476562 -48.753906 84.988281 -45.066406 C 88.503906 -41.375 90.304688 -36.367188 90.390625 -30.042969 C 90.390625 -19.324219 86.769531 -11.375 79.523438 -6.191406 C 72.273438 -1.011719 62.589844 1.582031 50.46875 1.582031 C 36.324219 1.582031 25.320312 -0.789062 17.460938 -5.535156 C 9.597656 -10.277344 5.664062 -18.667969 5.664062 -30.703125 L 33.207031 -30.703125 C 33.207031 -26.132812 34.390625 -23.082031 36.761719 -21.542969 C 39.136719 -20.007812 42.824219 -19.238281 47.832031 -19.238281 C 51.519531 -19.238281 54.574219 -19.632812 56.988281 -20.425781 C 59.40625 -21.214844 60.613281 -22.839844 60.613281 -25.300781 C 60.613281 -27.496094 59.273438 -29.144531 56.59375 -30.242188 C 53.914062 -31.339844 49.542969 -32.503906 43.484375 -33.734375 C 36.105469 -35.3125 30 -36.960938 25.167969 -38.671875 C 20.335938 -40.386719 16.121094 -43.21875 12.519531 -47.171875 C 8.917969 -51.125 7.117188 -56.484375 7.117188 -63.25 C 7.117188 -73.175781 10.957031 -80.488281 18.644531 -85.1875 C 26.332031 -89.886719 36.058594 -92.238281 47.832031 -92.238281 Z M 47.832031 -92.238281 "/></g></g></g><g fill="#ffffff" fill-opacity="1"><g transform="translate(421.261321, 193.381779)"><g><path d="M 11.070312 -90.65625 L 40.1875 -90.65625 L 40.1875 0 L 11.070312 0 Z M 11.070312 -90.65625 "/></g></g></g><g fill="#ffffff" fill-opacity="1"><g transform="translate(472.518168, 193.381779)"><g><path d="M 54.816406 -92.238281 C 70.453125 -92.238281 82.53125 -88.242188 91.050781 -80.246094 C 99.574219 -72.253906 103.832031 -60.613281 103.832031 -45.328125 C 103.832031 -30.042969 99.574219 -18.402344 91.050781 -10.410156 C 82.53125 -2.414062 70.453125 1.582031 54.816406 1.582031 C 39.179688 1.582031 27.121094 -2.394531 18.644531 -10.34375 C 10.167969 -18.292969 5.929688 -29.957031 5.929688 -45.328125 C 5.929688 -60.699219 10.167969 -72.363281 18.644531 -80.3125 C 27.121094 -88.261719 39.179688 -92.238281 54.816406 -92.238281 Z M 54.816406 -70.496094 C 48.578125 -70.496094 43.835938 -68.605469 40.585938 -64.828125 C 37.335938 -61.050781 35.710938 -55.957031 35.710938 -49.542969 L 35.710938 -41.113281 C 35.710938 -34.699219 37.335938 -29.605469 40.585938 -25.828125 C 43.835938 -22.050781 48.578125 -20.160156 54.816406 -20.160156 C 61.050781 -20.160156 65.816406 -22.050781 69.113281 -25.828125 C 72.40625 -29.605469 74.054688 -34.699219 74.054688 -41.113281 L 74.054688 -49.542969 C 74.054688 -55.957031 72.40625 -61.050781 69.113281 -64.828125 C 65.816406 -68.605469 61.050781 -70.496094 54.816406 -70.496094 Z M 54.816406 -70.496094 "/></g></g></g><g fill="#ffffff" fill-opacity="1"><g transform="translate(582.278947, 193.381779)"><g/></g></g><g fill="#ffffff" fill-opacity="1"><g transform="translate(626.156919, 193.381779)"><g><path d="M 70.101562 -90.65625 C 74.667969 -90.65625 78.863281 -89.710938 82.683594 -87.824219 C 86.503906 -85.933594 89.535156 -83.277344 91.777344 -79.851562 C 94.015625 -76.425781 95.136719 -72.605469 95.136719 -68.386719 C 95.136719 -57.230469 90.085938 -50.203125 79.984375 -47.304688 L 79.984375 -46.777344 C 91.492188 -44.140625 97.246094 -36.585938 97.246094 -24.113281 C 97.246094 -19.371094 96.082031 -15.175781 93.753906 -11.53125 C 91.425781 -7.882812 88.242188 -5.050781 84.199219 -3.03125 C 80.160156 -1.011719 75.722656 0 70.890625 0 L 9.75 0 L 9.75 -90.65625 Z M 38.871094 -55.34375 L 58.898438 -55.34375 C 60.832031 -55.34375 62.4375 -56.023438 63.710938 -57.382812 C 64.984375 -58.746094 65.621094 -60.4375 65.621094 -62.457031 L 65.621094 -63.777344 C 65.621094 -65.707031 64.960938 -67.355469 63.644531 -68.714844 C 62.324219 -70.078125 60.746094 -70.757812 58.898438 -70.757812 L 38.871094 -70.757812 Z M 38.871094 -21.082031 L 61.007812 -21.082031 C 62.941406 -21.082031 64.542969 -21.761719 65.816406 -23.125 C 67.089844 -24.488281 67.726562 -26.179688 67.726562 -28.199219 L 67.726562 -29.515625 C 67.726562 -31.535156 67.089844 -33.226562 65.816406 -34.589844 C 64.542969 -35.949219 62.941406 -36.632812 61.007812 -36.632812 L 38.871094 -36.632812 Z M 38.871094 -21.082031 "/></g></g></g><g fill="#ffffff" fill-opacity="1"><g transform="translate(726.430546, 193.381779)"><g><path d="M 70.496094 0 L 66.675781 -12.78125 L 34.917969 -12.78125 L 31.097656 0 L 1.316406 0 L 34.390625 -90.65625 L 68.253906 -90.65625 L 101.328125 0 Z M 40.980469 -33.074219 L 60.613281 -33.074219 L 51.125 -65.355469 L 50.597656 -65.355469 Z M 40.980469 -33.074219 "/></g></g></g><g fill="#ffffff" fill-opacity="1"><g transform="translate(828.944241, 193.381779)"><g><path d="M 95.796875 -62.851562 C 95.796875 -57.320312 94.300781 -52.3125 91.316406 -47.832031 C 88.328125 -43.351562 83.980469 -40.058594 78.269531 -37.949219 L 98.429688 0 L 65.753906 0 L 49.675781 -33.074219 L 38.871094 -33.074219 L 38.871094 0 L 9.75 0 L 9.75 -90.65625 L 65.226562 -90.65625 C 71.726562 -90.65625 77.28125 -89.402344 81.894531 -86.902344 C 86.503906 -84.398438 89.976562 -81.015625 92.304688 -76.753906 C 94.632812 -72.492188 95.796875 -67.859375 95.796875 -62.851562 Z M 66.148438 -61.667969 C 66.148438 -64.039062 65.355469 -66.015625 63.777344 -67.597656 C 62.195312 -69.179688 60.261719 -69.96875 57.976562 -69.96875 L 38.871094 -69.96875 L 38.871094 -53.234375 L 57.976562 -53.234375 C 60.261719 -53.234375 62.195312 -54.046875 63.777344 -55.671875 C 65.355469 -57.296875 66.148438 -59.296875 66.148438 -61.667969 Z M 66.148438 -61.667969 "/></g></g></g><g fill="#ffffff" fill-opacity="1"><g transform="translate(931.457935, 193.381779)"><g><path d="M 95.796875 -62.851562 C 95.796875 -57.320312 94.300781 -52.3125 91.316406 -47.832031 C 88.328125 -43.351562 83.980469 -40.058594 78.269531 -37.949219 L 98.429688 0 L 65.753906 0 L 49.675781 -33.074219 L 38.871094 -33.074219 L 38.871094 0 L 9.75 0 L 9.75 -90.65625 L 65.226562 -90.65625 C 71.726562 -90.65625 77.28125 -89.402344 81.894531 -86.902344 C 86.503906 -84.398438 89.976562 -81.015625 92.304688 -76.753906 C 94.632812 -72.492188 95.796875 -67.859375 95.796875 -62.851562 Z M 66.148438 -61.667969 C 66.148438 -64.039062 65.355469 -66.015625 63.777344 -67.597656 C 62.195312 -69.179688 60.261719 -69.96875 57.976562 -69.96875 L 38.871094 -69.96875 L 38.871094 -53.234375 L 57.976562 -53.234375 C 60.261719 -53.234375 62.195312 -54.046875 63.777344 -55.671875 C 65.355469 -57.296875 66.148438 -59.296875 66.148438 -61.667969 Z M 66.148438 -61.667969 "/></g></g></g><g fill="#ffffff" fill-opacity="1"><g transform="translate(1031.731517, 193.381779)"><g><path d="M 54.816406 -92.238281 C 70.453125 -92.238281 82.53125 -88.242188 91.050781 -80.246094 C 99.574219 -72.253906 103.832031 -60.613281 103.832031 -45.328125 C 103.832031 -30.042969 99.574219 -18.402344 91.050781 -10.410156 C 82.53125 -2.414062 70.453125 1.582031 54.816406 1.582031 C 39.179688 1.582031 27.121094 -2.394531 18.644531 -10.34375 C 10.167969 -18.292969 5.929688 -29.957031 5.929688 -45.328125 C 5.929688 -60.699219 10.167969 -72.363281 18.644531 -80.3125 C 27.121094 -88.261719 39.179688 -92.238281 54.816406 -92.238281 Z M 54.816406 -70.496094 C 48.578125 -70.496094 43.835938 -68.605469 40.585938 -64.828125 C 37.335938 -61.050781 35.710938 -55.957031 35.710938 -49.542969 L 35.710938 -41.113281 C 35.710938 -34.699219 37.335938 -29.605469 40.585938 -25.828125 C 43.835938 -22.050781 48.578125 -20.160156 54.816406 -20.160156 C 61.050781 -20.160156 65.816406 -22.050781 69.113281 -25.828125 C 72.40625 -29.605469 74.054688 -34.699219 74.054688 -41.113281 L 74.054688 -49.542969 C 74.054688 -55.957031 72.40625 -61.050781 69.113281 -64.828125 C 65.816406 -68.605469 61.050781 -70.496094 54.816406 -70.496094 Z M 54.816406 -70.496094 "/></g></g></g><g fill="#ffffff" fill-opacity="1"><g transform="translate(1141.492341, 193.381779)"><g><path d="M 47.832031 -92.238281 C 59.425781 -92.238281 68.957031 -89.886719 76.425781 -85.1875 C 83.890625 -80.488281 87.714844 -73.527344 87.890625 -64.300781 L 87.890625 -62.722656 L 60.613281 -62.722656 L 60.613281 -63.25 C 60.613281 -65.882812 59.648438 -68.078125 57.714844 -69.835938 C 55.78125 -71.59375 52.839844 -72.472656 48.886719 -72.472656 C 45.019531 -72.472656 42.054688 -71.902344 39.992188 -70.757812 C 37.925781 -69.617188 36.894531 -68.210938 36.894531 -66.542969 C 36.894531 -64.171875 38.300781 -62.414062 41.113281 -61.273438 C 43.921875 -60.128906 48.445312 -58.945312 54.683594 -57.714844 C 61.976562 -56.222656 67.96875 -54.660156 72.667969 -53.035156 C 77.371094 -51.410156 81.476562 -48.753906 84.988281 -45.066406 C 88.503906 -41.375 90.304688 -36.367188 90.390625 -30.042969 C 90.390625 -19.324219 86.769531 -11.375 79.523438 -6.191406 C 72.273438 -1.011719 62.589844 1.582031 50.46875 1.582031 C 36.324219 1.582031 25.320312 -0.789062 17.460938 -5.535156 C 9.597656 -10.277344 5.664062 -18.667969 5.664062 -30.703125 L 33.207031 -30.703125 C 33.207031 -26.132812 34.390625 -23.082031 36.761719 -21.542969 C 39.136719 -20.007812 42.824219 -19.238281 47.832031 -19.238281 C 51.519531 -19.238281 54.574219 -19.632812 56.988281 -20.425781 C 59.40625 -21.214844 60.613281 -22.839844 60.613281 -25.300781 C 60.613281 -27.496094 59.273438 -29.144531 56.59375 -30.242188 C 53.914062 -31.339844 49.542969 -32.503906 43.484375 -33.734375 C 36.105469 -35.3125 30 -36.960938 25.167969 -38.671875 C 20.335938 -40.386719 16.121094 -43.21875 12.519531 -47.171875 C 8.917969 -51.125 7.117188 -56.484375 7.117188 -63.25 C 7.117188 -73.175781 10.957031 -80.488281 18.644531 -85.1875 C 26.332031 -89.886719 36.058594 -92.238281 47.832031 -92.238281 Z M 47.832031 -92.238281 "/></g></g></g></svg>